<svg width="0" height="0" class="hidden">
  <symbol fill="none" xmlns="http://www.w3.org/2000/svg" viewBox="0 0 24 24" id="Location">
    <path fill-rule="evenodd" clip-rule="evenodd" d="M4.23901 10.3912C4.25342 6.15065 7.70278 2.72465 11.9434 2.73906C16.1839 2.75347 19.6099 6.20282 19.5955 10.4434V10.5304C19.5434 13.2869 18.0042 15.8347 16.1173 17.826C15.0381 18.9466 13.833 19.9387 12.526 20.7825C12.1765 21.0848 11.6581 21.0848 11.3086 20.7825C9.36008 19.5143 7.64995 17.9131 6.2564 16.0521C5.01436 14.4293 4.30918 12.4597 4.23901 10.4173L4.23901 10.3912Z" stroke="#FF5722" stroke-width="1.5" stroke-linecap="round" stroke-linejoin="round"></path>
    <circle opacity="0.4" cx="11.9172" cy="10.539" r="2.46087" stroke="#FF5722" stroke-width="1.5" stroke-linecap="round" stroke-linejoin="round"></circle>
  </symbol>
  <symbol fill="none" xmlns="http://www.w3.org/2000/svg" viewBox="0 0 24 24" id="Message">
    <path opacity="0.4" d="M17.2678 8.56104L13.0024 11.9953C12.1952 12.6282 11.0636 12.6282 10.2564 11.9953L5.95435 8.56104" stroke="#FF5722" stroke-width="1.5" stroke-linecap="round" stroke-linejoin="round"></path>
    <path fill-rule="evenodd" clip-rule="evenodd" d="M6.88787 3H16.3158C17.6752 3.01525 18.969 3.58993 19.896 4.5902C20.823 5.59048 21.3022 6.92903 21.222 8.29412V14.822C21.3022 16.1871 20.823 17.5256 19.896 18.5259C18.969 19.5262 17.6752 20.1009 16.3158 20.1161H6.88787C3.96796 20.1161 2 17.7407 2 14.822V8.29412C2 5.37545 3.96796 3 6.88787 3Z" stroke="#FF5722" stroke-width="1.5" stroke-linecap="round" stroke-linejoin="round"></path>
  </symbol>
  <symbol fill="none" xmlns="http://www.w3.org/2000/svg" viewBox="0 0 24 24" id="telegram">
    <path d="M24 12C24 15.1826 22.7357 18.2348 20.4853 20.4853C18.2348 22.7357 15.1826 24 12 24C8.8174 24 5.76516 22.7357 3.51472 20.4853C1.26428 18.2348 0 15.1826 0 12C0 8.8174 1.26428 5.76516 3.51472 3.51472C5.76516 1.26428 8.8174 0 12 0C15.1826 0 18.2348 1.26428 20.4853 3.51472C22.7357 5.76516 24 8.8174 24 12V12ZM12.4305 8.859C11.2635 9.345 8.9295 10.35 5.4315 11.874C4.8645 12.099 4.566 12.321 4.539 12.537C4.494 12.9015 4.9515 13.0455 5.574 13.242L5.8365 13.3245C6.4485 13.524 7.2735 13.7565 7.701 13.7655C8.091 13.7745 8.5245 13.6155 9.003 13.2855C12.2715 11.079 13.959 9.9645 14.064 9.9405C14.139 9.9225 14.244 9.9015 14.313 9.9645C14.3835 10.026 14.376 10.1445 14.3685 10.176C14.3235 10.3695 12.528 12.0375 11.5995 12.9015C11.31 13.1715 11.1045 13.362 11.0625 13.4055C10.97 13.5 10.876 13.593 10.7805 13.6845C10.2105 14.2335 9.7845 14.6445 10.803 15.3165C11.2935 15.6405 11.6865 15.906 12.078 16.173C12.504 16.464 12.93 16.7535 13.482 17.1165C13.6215 17.2065 13.7565 17.304 13.887 17.397C14.3835 17.751 14.832 18.069 15.3825 18.018C15.7035 17.988 16.035 17.688 16.203 16.788C16.6005 14.6625 17.382 10.059 17.562 8.1615C17.573 8.00376 17.5664 7.8453 17.5425 7.689C17.5284 7.56288 17.4673 7.44669 17.3715 7.3635C17.235 7.26928 17.0723 7.22047 16.9065 7.224C16.4565 7.2315 15.762 7.473 12.4305 8.859V8.859Z" fill="#FF5722"></path>
  </symbol>
  <symbol fill="none" xmlns="http://www.w3.org/2000/svg" viewBox="0 0 24 24" id="linkedin">
    <path d="M12 0.47998C5.63758 0.47998 0.47998 5.63758 0.47998 12C0.47998 18.3624 5.63758 23.52 12 23.52C18.3624 23.52 23.52 18.3624 23.52 12C23.52 5.63758 18.3624 0.47998 12 0.47998ZM9.17998 16.7748H6.84718V9.26758H9.17998V16.7748ZM7.99918 8.34598C7.26238 8.34598 6.78598 7.82398 6.78598 7.17838C6.78598 6.51958 7.27678 6.01318 8.02918 6.01318C8.78158 6.01318 9.24238 6.51958 9.25678 7.17838C9.25678 7.82398 8.78158 8.34598 7.99918 8.34598ZM17.7 16.7748H15.3672V12.6144C15.3672 11.646 15.0288 10.9884 14.1852 10.9884C13.5408 10.9884 13.158 11.4336 12.9888 11.862C12.9264 12.0144 12.9108 12.2304 12.9108 12.4452V16.7736H10.5768V11.6616C10.5768 10.7244 10.5468 9.94078 10.5156 9.26638H12.5424L12.6492 10.3092H12.696C13.0032 9.81958 13.7556 9.09718 15.0144 9.09718C16.5492 9.09718 17.7 10.1256 17.7 12.336V16.7748V16.7748Z" fill="#FF5722"></path>
  </symbol>
  <symbol fill="none" xmlns="http://www.w3.org/2000/svg" viewBox="0 0 24 24" id="twitter">
    <path d="M12 1.5C6.20156 1.5 1.5 6.20156 1.5 12C1.5 17.7984 6.20156 22.5 12 22.5C17.7984 22.5 22.5 17.7984 22.5 12C22.5 6.20156 17.7984 1.5 12 1.5ZM17.0461 9.41484C17.0531 9.525 17.0531 9.63984 17.0531 9.75234C17.0531 13.193 14.4328 17.1562 9.64453 17.1562C8.16797 17.1562 6.79922 16.7273 5.64609 15.9891C5.85703 16.0125 6.05859 16.0219 6.27422 16.0219C7.49297 16.0219 8.61328 15.6094 9.50625 14.9109C8.3625 14.8875 7.40156 14.1375 7.07344 13.1063C7.47422 13.1648 7.83516 13.1648 8.24766 13.0594C7.65873 12.9397 7.12939 12.6199 6.74957 12.1542C6.36974 11.6885 6.16286 11.1056 6.16406 10.5047V10.4719C6.50859 10.6664 6.91406 10.7859 7.33828 10.8023C6.98166 10.5647 6.6892 10.2427 6.48682 9.86491C6.28445 9.48715 6.17841 9.06528 6.17813 8.63672C6.17813 8.15156 6.30469 7.70859 6.53203 7.32422C7.18571 8.12891 8.0014 8.78705 8.92609 9.25586C9.85078 9.72466 10.8638 9.99364 11.8992 10.0453C11.5313 8.27578 12.8531 6.84375 14.4422 6.84375C15.1922 6.84375 15.8672 7.15781 16.343 7.66406C16.9312 7.55391 17.4937 7.33359 17.9953 7.03828C17.8008 7.64062 17.393 8.14922 16.8516 8.47031C17.3766 8.41406 17.8828 8.26875 18.3516 8.06484C17.9977 8.58516 17.5547 9.04688 17.0461 9.41484V9.41484Z" fill="#FF5722"></path>
  </symbol>
  <symbol fill="none" xmlns="http://www.w3.org/2000/svg" viewBox="0 0 24 24" id="Calling">
    <g id="Iconly/Two-tone/Calling">
      <g id="Calling">
        <path id="Stroke 1" opacity="0.4" d="M14.353 2.5C18.054 2.911 20.978 5.831 21.393 9.532" stroke="#FF5722" stroke-width="1.5" stroke-linecap="round" stroke-linejoin="round"></path>
        <path id="Stroke 3" opacity="0.4" d="M14.353 6.04297C16.124 6.38697 17.508 7.77197 17.853 9.54297" stroke="#FF5722" stroke-width="1.5" stroke-linecap="round" stroke-linejoin="round"></path>
        <path id="Stroke 5" fill-rule="evenodd" clip-rule="evenodd" d="M11.0315 12.4724C15.0205 16.4604 15.9254 11.8467 18.4653 14.3848C20.9138 16.8328 22.3222 17.3232 19.2188 20.4247C18.8302 20.737 16.3613 24.4943 7.68447 15.8197C-0.993406 7.144 2.76157 4.67244 3.07394 4.28395C6.18377 1.17385 6.66682 2.58938 9.11539 5.03733C11.6541 7.5765 7.04254 8.48441 11.0315 12.4724Z" stroke="#FF5722" stroke-width="1.5" stroke-linecap="round" stroke-linejoin="round"></path>
      </g>
    </g>
  </symbol>
</svg>