<svg width="16" height="16" viewBox="0 0 16 16" fill="none" xmlns="http://www.w3.org/2000/svg">
<path d="M7 16C6.60589 16.0011 6.21547 15.924 5.85139 15.7731C5.4873 15.6222 5.15678 15.4006 4.879 15.121L0.879 11.121C0.312 10.555 0 9.80099 0 8.99999C0 8.19899 0.312 7.44499 0.879 6.87799C2.012 5.74499 3.988 5.74499 5.121 6.87799L6.309 8.06599L9.378 2.54299C9.66578 2.0239 10.1011 1.60187 10.6289 1.33034C11.1567 1.05881 11.7532 0.949995 12.3428 1.01767C12.9325 1.08534 13.4888 1.32645 13.9413 1.71049C14.3939 2.09452 14.7223 2.6042 14.885 3.17499C14.9946 3.55381 15.0278 3.95063 14.9826 4.34239C14.9375 4.73416 14.8149 5.11303 14.622 5.45699L9.622 14.457C9.361 14.9235 8.98063 15.3123 8.51989 15.5835C8.05915 15.8546 7.5346 15.9983 7 16ZM3 7.99999C2.732 7.99999 2.482 8.10399 2.293 8.29299C2.104 8.48199 2 8.73199 2 8.99999C2 9.26799 2.104 9.51799 2.293 9.70699L6.293 13.707C6.40261 13.816 6.53595 13.8982 6.68261 13.9471C6.82927 13.996 6.98525 14.0103 7.13836 13.9889C7.29147 13.9675 7.43755 13.911 7.56517 13.8237C7.69279 13.7365 7.79849 13.6209 7.874 13.486L12.874 4.48599C12.9382 4.37142 12.979 4.24526 12.9941 4.1148C13.0092 3.98435 12.9983 3.85219 12.962 3.72599C12.9261 3.59925 12.8654 3.48093 12.7833 3.37791C12.7013 3.2749 12.5995 3.18926 12.484 3.12599C12.2517 3.00198 11.9802 2.97313 11.727 3.04553C11.4738 3.11792 11.2587 3.2859 11.127 3.51399L6.77 11.355L3.708 8.29299C3.61518 8.19983 3.50482 8.12597 3.3833 8.07568C3.26179 8.02539 3.13151 7.99967 3 7.99999V7.99999Z" fill="#11BC41"/>
</svg>
